<?xml version="1.0" standalone="no"?>
<!DOCTYPE svg PUBLIC "-//W3C//DTD SVG 20010904//EN"
 "http://www.w3.org/TR/2001/REC-SVG-20010904/DTD/svg10.dtd">
<svg version="1.0" xmlns="http://www.w3.org/2000/svg"
 width="400.000000pt" height="150.000000pt" viewBox="0 0 400.000000 150.000000"
 preserveAspectRatio="xMidYMid meet">

<g transform="translate(0.000000,150.000000) scale(0.100000,-0.100000)"
fill="#000000" stroke="none">
<path d="M347 1184 c-17 -26 -69 -99 -114 -163 -82 -115 -88 -129 -83 -204 1
-21 -4 -30 -19 -34 -27 -7 -27 -33 -1 -40 17 -5 20 -14 20 -69 0 -52 -4 -67
-22 -84 -23 -21 -18 -26 12 -10 13 7 19 6 24 -6 4 -11 13 -13 28 -8 21 6 22 5
8 -11 -8 -10 -33 -26 -55 -36 -22 -10 -33 -18 -25 -16 9 1 17 -2 18 -8 1 -5
48 -56 104 -112 l103 -103 260 0 261 0 102 102 c56 55 102 107 102 115 0 7 9
13 20 13 29 0 29 66 0 75 -18 6 -20 15 -20 81 0 67 2 74 20 74 13 0 20 7 20
20 0 13 -7 20 -20 20 -18 0 -20 7 -20 66 l0 66 31 -7 c16 -4 57 -4 90 0 l60 7
-3 37 -3 36 -69 8 c-41 4 -73 3 -80 -2 -7 -6 -29 -9 -50 -8 -36 2 -41 7 -123
125 l-85 122 -229 0 -229 0 -33 -46z m595 -134 l108 -155 0 -103 0 -102 -40
20 c-23 12 -38 25 -35 30 4 6 -1 7 -11 3 -11 -4 -15 -3 -11 4 5 7 0 9 -11 6
-14 -3 -23 6 -37 39 -10 24 -19 51 -20 61 -1 10 -6 21 -10 25 -5 4 -5 -2 -1
-12 5 -16 4 -17 -9 -6 -8 7 -13 16 -10 20 3 4 -17 28 -44 53 -35 33 -45 47
-34 51 21 8 6 26 -23 26 -14 0 -27 7 -31 18 -4 9 -15 28 -25 41 -10 13 -18 31
-18 41 0 9 -9 25 -20 35 -11 10 -20 24 -20 32 0 7 -6 13 -12 13 -9 0 -8 4 2
10 8 6 57 9 109 8 l94 -3 109 -155z m-186 -65 c-15 -8 -33 -15 -40 -15 -16 1
36 29 54 30 8 0 2 -7 -14 -15z m-43 -41 c61 -21 132 -85 164 -148 27 -54 74
-125 96 -148 8 -7 17 -25 20 -40 8 -29 45 -48 57 -29 13 21 40 0 40 -31 0 -20
-4 -29 -12 -25 -7 2 -24 8 -38 12 -22 7 -23 6 -11 -9 12 -14 11 -16 -8 -16
-12 0 -19 5 -16 10 3 6 1 10 -4 10 -6 0 -11 5 -11 11 0 5 5 7 12 3 7 -4 8 -3
4 5 -4 6 -12 9 -17 6 -5 -4 -9 -1 -9 5 0 6 -5 8 -12 4 -6 -4 -8 -3 -4 4 3 6
-2 17 -12 24 -10 7 -48 60 -85 118 -64 102 -141 190 -202 230 -37 24 -16 26
48 4z m67 6 c8 -5 12 -11 10 -14 -3 -2 -14 2 -24 10 -22 15 -10 19 14 4z m300
-5 c0 -8 -9 -15 -19 -15 -10 0 -21 7 -25 15 -4 11 1 15 19 15 16 0 25 -6 25
-15z m-423 -17 c11 -14 11 -108 -1 -126 -10 -17 -53 -15 -60 3 -3 10 1 15 12
15 41 0 58 58 24 82 -32 23 -35 38 -9 38 14 0 29 -6 34 -12z m173 -23 c13 -14
21 -25 18 -25 -2 0 -15 11 -28 25 -13 14 -21 25 -18 25 2 0 15 -11 28 -25z
m-40 -96 c0 -3 -11 -4 -24 -2 -26 5 -40 -17 -30 -49 7 -22 56 -22 60 0 1 7 0
8 -3 2 -7 -16 -43 -12 -50 6 -8 21 12 38 34 29 10 -5 21 -8 25 -7 13 3 68 -99
68 -128 0 -34 -16 -48 -23 -20 -8 30 -72 54 -110 41 -39 -14 -37 -15 -37 15 0
15 -12 37 -27 52 l-28 27 28 27 c20 20 27 36 27 64 l0 38 45 -44 c25 -24 45
-47 45 -51z m-276 67 c-8 -21 25 -84 47 -91 17 -6 16 -9 -10 -31 -16 -13 -32
-38 -36 -54 -6 -26 -9 -28 -32 -19 -38 14 -79 2 -108 -33 l-25 -30 0 37 c0 36
20 74 64 122 25 27 39 29 57 7 11 -14 10 -18 -6 -30 -10 -8 -14 -14 -8 -14 17
0 34 26 27 43 -3 9 -14 19 -25 22 -17 6 -16 9 13 46 31 39 52 51 42 25z m113
-2 c3 -8 1 -20 -5 -26 -15 -15 -43 8 -35 28 7 19 32 18 40 -2z m-460 -96 c-2
-18 -4 -4 -4 32 0 36 2 50 4 33 2 -18 2 -48 0 -65z m409 -53 c14 -13 12 -15
-17 -15 -27 0 -30 2 -19 15 7 8 14 15 17 15 2 0 11 -7 19 -15z m37 -42 c-7 -2
-21 -2 -30 0 -10 3 -4 5 12 5 17 0 24 -2 18 -5z m-132 -24 c11 -5 17 -14 14
-20 -4 -5 1 -9 9 -9 16 0 32 -42 22 -58 -3 -5 -15 -12 -26 -15 -17 -4 -18 -2
-9 15 8 15 7 25 -6 44 -17 26 -35 30 -65 14 -13 -7 -19 -6 -24 5 -10 28 47 45
85 24z m174 -13 c12 -12 12 -16 0 -26 -18 -15 -46 -6 -63 20 -11 18 -10 20 19
20 17 0 37 -6 44 -14z m185 -32 c13 -34 -5 -68 -47 -88 -40 -19 -68 -14 -84
16 -14 26 3 45 21 23 15 -18 51 -20 68 -3 15 15 16 55 1 64 -8 4 -7 9 2 15 17
10 28 3 39 -27z m-372 -22 c3 -17 -2 -22 -17 -22 -14 0 -21 6 -21 18 0 38 33
41 38 4z m322 -3 c0 -12 -7 -19 -19 -19 -26 0 -36 17 -21 35 15 18 40 8 40
-16z m-225 11 c8 -13 61 -13 84 -1 14 8 19 3 28 -29 l10 -39 -76 1 c-64 0 -73
2 -58 13 12 9 14 14 6 17 -7 2 -13 14 -14 26 -2 23 9 29 20 12z m355 -4 c0 -2
-7 -7 -16 -10 -8 -3 -12 -2 -9 4 6 10 25 14 25 6z m-630 -16 c0 -5 -5 -10 -11
-10 -5 0 -7 5 -4 10 3 6 8 10 11 10 2 0 4 -4 4 -10z m55 -31 c24 -53 100 -115
172 -141 71 -25 140 -20 216 15 52 24 147 111 147 135 0 6 5 12 10 12 13 0 13
-6 -1 -29 -30 -48 27 -109 73 -79 13 9 36 15 52 15 26 1 23 -5 -60 -88 l-89
-89 -257 0 -258 0 -67 69 c-109 110 -106 107 -80 106 12 0 32 -6 45 -13 12 -7
31 -10 42 -7 19 6 60 55 60 72 0 4 -5 1 -10 -7 -8 -13 -10 -13 -10 2 0 9 -7
24 -16 32 -15 15 -12 36 5 36 4 0 16 -18 26 -41z m590 -9 c-3 -5 -1 -10 5 -10
6 0 8 -5 5 -10 -4 -6 -3 -10 2 -9 4 1 14 1 21 0 20 -2 -5 -41 -26 -41 -36 0
-55 43 -30 68 15 15 32 16 23 2z m-715 -15 c0 -9 -9 -15 -22 -15 -22 1 -23 1
-4 15 25 19 26 19 26 0z m83 -47 c-2 -5 -15 -8 -28 -8 -30 0 -52 35 -36 54 9
11 17 8 40 -13 16 -14 27 -29 24 -33z m467 22 l25 -1 -30 -25 c-86 -71 -227
-68 -324 7 l-24 19 36 0 c20 0 38 -4 41 -9 3 -5 15 -11 27 -14 16 -4 19 -2 15
10 -5 13 -1 14 25 9 17 -3 40 -6 51 -6 13 0 17 -4 12 -12 -4 -7 1 -6 12 4 21
18 59 28 89 22 11 -2 31 -4 45 -4z"/>
<path d="M420 750 c0 -5 5 -10 11 -10 5 0 7 5 4 10 -3 6 -8 10 -11 10 -2 0 -4
-4 -4 -10z"/>
<path d="M338 439 c-25 -14 -22 -55 4 -73 19 -13 25 -14 43 -2 26 17 31 49 10
70 -19 18 -33 20 -57 5z m36 -30 c-3 -5 0 -9 5 -9 17 0 13 -20 -5 -27 -8 -3
-23 1 -31 10 -13 13 -14 19 -4 31 13 15 45 11 35 -5z"/>
<path d="M820 430 c-39 -39 20 -98 63 -62 22 19 22 45 -1 65 -24 22 -38 21
-62 -3z m50 -57 c0 -14 -45 5 -48 21 -6 31 20 38 35 9 7 -14 13 -27 13 -30z"/>
<path d="M1606 1065 l-116 -163 0 -61 c0 -48 -3 -61 -15 -61 -8 0 -15 -9 -15
-20 0 -11 7 -20 15 -20 24 0 21 -135 -2 -149 -34 -20 2 -10 50 13 26 13 46 21
43 18 -3 -3 -1 -10 4 -17 12 -14 -18 -44 -75 -74 -22 -12 -32 -21 -22 -21 10
0 17 -8 17 -18 0 -9 44 -61 98 -115 l97 -97 265 0 265 0 96 98 c105 106 122
137 83 152 -32 13 -110 85 -144 135 -15 22 -38 76 -52 120 -23 72 -24 77 -6
55 11 -14 31 -47 45 -75 38 -76 87 -130 149 -165 51 -29 56 -34 52 -61 -3 -16
-1 -29 4 -29 4 0 8 15 8 34 0 26 -5 36 -20 41 -18 6 -20 15 -20 80 0 69 2 74
22 77 34 5 37 38 4 38 -25 0 -26 2 -26 66 l0 66 31 -7 c16 -4 57 -4 90 0 l60
7 -3 37 -3 36 -65 8 c-40 5 -72 4 -85 -2 -27 -14 -85 -8 -95 10 -5 8 -43 62
-85 122 l-76 108 -229 -1 -229 -1 -115 -164z m591 112 c28 -41 124 -179 166
-237 31 -44 32 -48 32 -147 0 -57 -2 -103 -5 -103 -3 0 -31 15 -63 33 -43 25
-64 44 -82 79 -13 25 -21 49 -17 53 4 5 2 5 -4 2 -11 -6 -61 52 -56 66 1 5 -2
6 -8 2 -6 -4 -17 -2 -24 5 -8 6 -31 20 -52 31 -22 11 -30 18 -19 15 11 -3 34
-8 50 -11 l30 -5 -28 11 c-15 6 -25 15 -22 19 3 5 -3 15 -13 22 -24 18 -52 64
-52 86 0 10 -9 27 -19 36 -11 10 -17 25 -14 37 4 13 0 19 -11 19 -9 0 -16 5
-16 10 0 6 41 10 103 10 l102 0 22 -33z m223 -232 c0 -8 -6 -15 -14 -15 -7 0
-19 7 -26 15 -11 13 -8 15 14 15 16 0 26 -5 26 -15z m-913 -162 c-2 -21 -4 -4
-4 37 0 41 2 58 4 38 2 -21 2 -55 0 -75z m413 62 c7 -8 20 -15 30 -15 10 0 23
7 30 15 7 8 26 15 42 15 28 0 29 -1 14 -22 -9 -12 -16 -35 -16 -51 0 -25 -2
-27 -21 -16 -12 6 -41 9 -65 6 -39 -4 -43 -2 -49 22 -4 14 -14 34 -22 44 -15
16 -14 17 14 17 17 0 36 -7 43 -15z m43 8 c-7 -2 -19 -2 -25 0 -7 3 -2 5 12 5
14 0 19 -2 13 -5z m-107 -28 c33 -50 -21 -148 -62 -114 -13 11 -11 14 15 25
25 11 31 19 31 44 0 23 -7 35 -32 50 l-33 20 32 0 c24 0 37 -7 49 -25z m328
-21 c12 -30 6 -41 -34 -68 -47 -31 -71 -33 -94 -7 -24 26 -4 36 29 15 23 -15
27 -15 50 0 17 11 25 26 25 46 0 32 14 40 24 14z m-374 -10 c11 -12 10 -18 -4
-32 -16 -16 -18 -16 -31 2 -11 14 -12 23 -4 33 15 17 24 16 39 -3z m327 0 c3
-8 -1 -22 -9 -30 -12 -12 -17 -12 -33 0 -16 12 -17 16 -6 30 17 20 40 21 48 0z
m-164 -31 c3 -5 1 -17 -3 -28 -7 -19 -7 -19 -18 2 -7 12 -12 24 -12 27 0 9 28
7 33 -1z m-245 -74 c-3 -40 2 -52 16 -40 18 15 31 -15 15 -35 -12 -15 -3 -53
14 -56 7 0 17 -2 24 -2 19 -2 63 -48 63 -66 0 -8 7 -26 16 -38 18 -26 15 -27
-30 -8 -105 44 -184 192 -150 281 6 14 8 14 19 -3 8 -10 13 -25 13 -33z m486
16 c7 -28 -8 -105 -28 -144 -21 -39 -86 -98 -128 -115 l-36 -16 15 31 c20 41
10 94 -23 116 l-25 16 25 26 c14 15 29 41 32 59 5 24 10 30 17 23 18 -18 83
-13 108 9 31 25 36 25 43 -5z m-260 -1 c10 -25 -1 -29 -14 -5 -6 12 -7 21 -1
21 5 0 12 -7 15 -16z m-61 -88 l25 -19 -30 -25 c-29 -25 -31 -25 -44 -7 -8 10
-14 26 -14 35 0 9 -9 25 -20 35 -24 21 -26 40 -5 31 8 -3 15 0 15 6 0 6 8 17
18 24 15 11 18 9 23 -24 4 -23 16 -44 32 -56z m42 55 c12 -25 12 -61 0 -61
-30 0 -44 35 -29 74 8 22 11 20 29 -13z m-140 -99 c-8 -8 -25 10 -25 26 0 13
2 13 14 -4 8 -10 13 -21 11 -22z m-170 16 c-3 -7 -19 -21 -35 -30 -17 -9 -30
-24 -30 -33 0 -9 -9 -15 -22 -15 -25 0 -23 3 42 54 51 40 51 41 45 24z m619
-3 c-5 -11 -1 -14 12 -9 17 5 16 4 -1 -7 -44 -27 -47 -68 -8 -98 28 -23 59
-20 81 7 6 9 12 11 12 5 0 -6 10 -9 23 -6 15 4 -6 -23 -68 -86 l-90 -91 -255
0 -255 0 -90 90 c-72 72 -84 89 -64 86 13 -1 35 -8 47 -15 19 -10 30 -10 53
-1 41 17 48 53 19 93 l-23 31 31 -23 c30 -21 37 -33 32 -56 -1 -5 2 -7 6 -3 4
4 14 0 23 -10 60 -67 169 -109 254 -98 98 13 193 80 237 166 20 39 35 55 24
25z m76 -22 c0 -7 -39 17 -46 28 -3 6 5 3 20 -6 14 -10 26 -19 26 -22z m-411
-30 c-16 -19 -2 -63 24 -72 23 -9 50 1 75 26 20 20 25 10 11 -21 -23 -49 -93
-46 -132 6 -17 22 -18 32 -10 51 6 13 18 24 27 24 12 0 13 -4 5 -14z m398 -10
c6 4 10 -3 9 -15 -1 -29 -31 -46 -53 -32 -25 16 -28 45 -8 61 15 10 20 10 30
-4 7 -9 17 -13 22 -10z m68 -3 c3 -6 -3 -10 -13 -10 -11 0 -22 9 -25 20 -4 17
-2 18 13 10 11 -6 22 -15 25 -20z m-735 -38 c0 -4 -10 -7 -21 -7 -26 0 -45 26
-36 49 5 14 10 12 31 -9 14 -14 26 -29 26 -33z m335 23 c0 -13 -8 -21 -22 -23
-17 -3 -23 2 -23 16 0 10 3 22 7 26 13 13 38 1 38 -19z"/>
<path d="M2075 611 c-12 -40 20 -70 56 -51 20 11 23 27 13 54 -9 23 -61 21
-69 -3z m52 -2 c14 -14 6 -39 -12 -39 -18 0 -28 17 -21 35 6 18 18 19 33 4z"/>
<path d="M1676 437 c-41 -30 11 -100 56 -76 25 13 24 65 -1 79 -25 13 -33 13
-55 -3z m34 -22 c0 -8 5 -15 10 -15 16 0 12 -20 -5 -26 -24 -10 -47 14 -34 37
12 23 29 25 29 4z"/>
<path d="M2168 439 c-22 -12 -23 -52 -2 -73 20 -21 37 -20 57 2 21 23 22 46 1
66 -18 18 -32 20 -56 5z m45 -61 c-7 -13 -30 -9 -43 7 -10 12 -10 18 0 30 10
13 15 12 30 -8 10 -12 16 -25 13 -29z"/>
<path d="M3064 1222 c-6 -4 -42 -52 -81 -107 -162 -230 -153 -215 -153 -277 0
-45 -3 -58 -15 -58 -8 0 -15 -9 -15 -20 0 -11 7 -20 15 -20 24 0 21 -135 -2
-149 -30 -17 7 -13 41 4 34 18 60 20 50 3 -5 -8 -1 -9 12 -4 37 14 -17 -31
-71 -58 -27 -14 -42 -26 -32 -26 9 0 17 -7 17 -16 0 -9 46 -61 101 -115 l102
-99 261 0 262 0 103 104 c65 67 100 109 95 117 -5 9 -1 10 14 7 20 -5 22 -2
22 29 0 22 -7 41 -17 48 -12 9 -17 30 -18 84 -1 68 0 71 22 71 16 0 23 6 23
20 0 13 -7 20 -20 20 -11 0 -20 3 -20 8 -1 4 -2 33 -3 65 l-2 57 28 -6 c15 -3
55 -3 88 1 l59 7 0 38 0 37 -71 7 c-41 4 -76 2 -83 -3 -6 -5 -27 -9 -45 -8
-32 2 -41 11 -121 122 l-86 120 -225 2 c-123 2 -229 0 -235 -5z m501 -84 c28
-40 78 -111 113 -159 l62 -88 0 -101 c0 -55 -3 -100 -7 -100 -17 0 -63 37 -56
45 5 4 3 5 -4 2 -15 -9 -45 2 -37 14 3 5 -2 6 -10 3 -11 -4 -21 8 -36 40 -12
25 -39 65 -61 89 -21 25 -35 47 -31 51 3 4 -1 4 -11 0 -10 -4 -19 0 -23 9 -3
8 -20 18 -37 21 -25 5 -29 9 -17 16 20 13 39 12 20 -1 -13 -9 -13 -10 0 -7 8
1 26 -4 40 -11 14 -7 -1 12 -33 42 -31 30 -63 70 -69 89 -6 18 -19 38 -27 45
-14 10 -14 15 -3 34 13 21 13 21 -14 15 -24 -6 -26 -5 -15 8 11 13 34 16 110
16 l96 0 50 -72z m195 -189 c0 -14 -5 -19 -17 -17 -23 4 -28 25 -6 31 10 3 19
5 21 6 1 0 2 -8 2 -20z m-367 -103 c9 -6 15 -16 13 -23 -3 -7 1 -10 9 -7 17 7
67 -25 59 -37 -3 -5 -14 -9 -24 -9 -10 0 -30 -14 -44 -31 -16 -19 -26 -25 -26
-15 0 21 -48 56 -77 56 -20 0 -22 3 -13 19 13 26 13 67 -1 93 -12 22 6 14 104
-46z m-114 22 c14 -25 14 -29 -5 -55 -37 -49 -85 -62 -98 -27 -4 12 -1 14 14
9 47 -15 83 38 55 81 -16 24 -16 26 1 22 10 -2 25 -15 33 -30z m-51 -26 c3
-16 -2 -22 -17 -22 -24 0 -35 15 -27 36 9 23 40 13 44 -14z m-381 -64 c-2 -18
-4 -6 -4 27 0 33 2 48 4 33 2 -15 2 -42 0 -60z m273 38 c0 -3 -4 -8 -10 -11
-5 -3 -10 -1 -10 4 0 6 5 11 10 11 6 0 10 -2 10 -4z m-19 -61 c5 4 9 -3 9 -13
0 -11 -7 -22 -15 -26 -9 -3 -14 -17 -14 -33 l2 -28 4 28 c2 15 9 27 15 27 6 0
8 -11 6 -25 -3 -14 -2 -42 2 -64 4 -21 4 -58 1 -82 l-7 -44 -26 40 c-15 22
-33 61 -40 88 -12 45 -11 50 17 102 17 31 31 49 33 40 2 -8 8 -13 13 -10z
m249 -19 c0 -6 -7 -20 -15 -30 -14 -19 -15 -18 -15 17 0 28 3 35 15 31 8 -4
15 -11 15 -18z m-173 2 c2 6 13 12 23 12 16 0 17 -4 7 -36 -8 -26 -8 -43 0
-65 10 -25 9 -29 -5 -29 -10 0 -27 -3 -39 -6 -21 -6 -22 -3 -21 57 2 72 6 87
20 68 7 -11 11 -11 15 -1z m120 -55 c-3 -10 -5 -4 -5 12 0 17 2 24 5 18 2 -7
2 -21 0 -30z m-31 -29 c-7 -27 -31 -32 -40 -7 -4 10 2 25 16 40 19 21 24 22
26 8 2 -9 1 -27 -2 -41z m234 40 c11 -12 10 -18 -3 -32 -16 -15 -18 -15 -34 0
-13 14 -14 20 -3 32 7 9 16 16 20 16 4 0 13 -7 20 -16z m-65 -28 c25 -47 68
-46 90 2 11 24 20 28 30 12 4 -6 -1 -22 -9 -35 -14 -22 -24 -25 -71 -25 -56 0
-75 14 -75 54 0 21 22 16 35 -8z m18 -75 c18 -7 36 -7 53 0 35 13 39 7 21 -28
-40 -76 -153 -143 -241 -143 -42 0 -66 15 -38 24 32 10 56 70 43 108 -14 40
-15 38 15 38 15 0 36 12 52 28 l27 28 20 -23 c11 -12 32 -27 48 -32z m-289
-32 c-14 -15 -16 -25 -8 -47 8 -23 15 -27 51 -27 50 0 62 -9 33 -25 -46 -25
-97 4 -115 67 -5 17 1 30 21 50 31 31 48 15 18 -18z m-163 17 c9 0 15 -6 12
-13 -4 -9 -10 -9 -27 2 -13 8 -26 12 -29 8 -4 -3 -7 -1 -7 6 0 9 6 11 18 6 9
-5 24 -8 33 -9z m585 -15 c-26 -30 -24 -72 6 -94 25 -18 30 -19 55 -7 26 13
73 21 73 12 0 -2 -37 -41 -83 -88 l-83 -84 -260 0 -259 0 -84 84 c-71 72 -80
84 -62 89 11 2 28 -1 38 -9 10 -7 25 -14 34 -14 24 0 60 39 58 63 -3 46 2 47
34 5 101 -133 292 -164 416 -67 13 10 28 16 35 12 6 -3 8 -3 4 2 -6 7 4 23 52
82 6 7 10 19 10 27 0 10 6 13 15 9 14 -5 14 -7 1 -22z m49 19 c3 -5 2 -10 -4
-10 -5 0 -13 5 -16 10 -3 6 -2 10 4 10 5 0 13 -4 16 -10z m-727 -45 c-10 -22
-48 -36 -48 -17 0 5 40 34 57 41 2 1 -3 -10 -9 -24z m807 -10 c19 -14 19 -14
-7 -15 -16 0 -28 4 -28 9 0 5 -3 17 -7 27 -6 15 -4 16 8 6 8 -7 23 -19 34 -27z
m-490 0 c0 -23 -34 -33 -45 -14 -13 20 1 40 24 37 13 -2 21 -10 21 -23z m400
14 c-4 -6 2 -13 13 -16 12 -3 19 -12 17 -21 -2 -10 -4 -20 -4 -24 -2 -17 -51
-7 -61 11 -13 25 -13 27 6 45 17 18 39 22 29 5z m-646 -62 c-20 -25 -68 16
-55 48 5 15 9 14 34 -11 15 -16 25 -33 21 -37z"/>
<path d="M3351 848 c-1 -9 6 -24 15 -32 21 -22 31 -20 12 2 -9 9 -18 24 -21
32 -4 12 -6 12 -6 -2z"/>
<path d="M3362 551 c-8 -4 -12 -19 -10 -32 2 -19 9 -24 33 -24 33 0 45 25 25
50 -14 17 -29 19 -48 6z m46 -29 c3 -16 -2 -22 -17 -22 -24 0 -35 15 -27 36 9
23 40 13 44 -14z"/>
<path d="M3017 432 c-24 -26 -21 -49 7 -67 45 -30 91 16 61 61 -19 29 -46 31
-68 6z m40 -27 c12 -27 2 -41 -22 -31 -22 8 -18 56 4 56 3 0 11 -11 18 -25z"/>
<path d="M3508 436 c-19 -14 -23 -43 -10 -62 11 -16 47 -23 66 -12 23 13 21
65 -3 78 -25 13 -32 12 -53 -4z m41 -43 c14 -10 14 -12 -3 -19 -26 -10 -51 23
-34 44 10 12 13 12 17 1 2 -8 11 -19 20 -26z"/>
<path d="M1547 596 c-4 -10 -1 -13 8 -9 8 3 12 9 9 14 -7 12 -11 11 -17 -5z"/>
</g>
</svg>
